<svg width="16" height="16" viewBox="0 0 16 16" fill="none" xmlns="http://www.w3.org/2000/svg">
<path d="M4.5 6.84999C4.96667 4.98332 6.13333 4.04999 8 4.04999C10.8 4.04999 11.15 6.14999 12.55 6.49999C13.4833 6.73332 14.3 6.38332 15 5.44999C14.5333 7.31665 13.3667 8.24999 11.5 8.24999C8.7 8.24999 8.35 6.14999 6.95 5.79999C6.01667 5.56665 5.2 5.91665 4.5 6.84999ZM1 11.05C1.46667 9.18332 2.63333 8.24999 4.5 8.24999C7.3 8.24999 7.65 10.35 9.05 10.7C9.98333 10.9333 10.8 10.5833 11.5 9.64999C11.0333 11.5167 9.86667 12.45 8 12.45C5.2 12.45 4.85 10.35 3.45 9.99999C2.51667 9.76665 1.7 10.1167 1 11.05Z" fill="#44A8B3"/>
</svg>
