<svg width="16" height="16" viewBox="0 0 16 16" fill="none" xmlns="http://www.w3.org/2000/svg">
<g clip-path="url(#clip0_1_4581)">
<path d="M15.4341 1.8211L11.0993 2.61118L11.8525 0L5.83718 1.17869L5.74348 2.7612L0.473287 1.81919C0.110287 1.79807 -0.101203 2.05871 0.0486979 2.42063L7.67544 15.7951C7.83959 16.063 8.21754 16.0735 8.38326 15.7951L15.8617 2.41934C16.0305 2.11696 15.7719 1.76252 15.4341 1.8211ZM8.02782 15.4284L0.558398 2.32986L5.71445 3.25148L5.47139 7.35663L7.58487 6.86887L6.99556 9.75463L8.60099 9.26687L7.80429 13.123C7.76457 13.3752 8.09306 13.5093 8.25552 13.1484L12.9499 3.77991L10.6332 4.22704L10.9484 3.13446L15.3518 2.33186L8.02782 15.4284Z" fill="#FDD835"/>
</g>
<defs>
<clipPath id="clip0_1_4581">
<rect width="16" height="16" fill="white"/>
</clipPath>
</defs>
</svg>
